<svg xmlns="http://www.w3.org/2000/svg" viewBox="0 0 560 450" fill="none">
  <!-- Folha + raio (recorte evenodd) -->
  <path fill="black" fill-rule="evenodd" d="
    M 88 428
    C 50 412 18 378 16 338
    C 13 290 46 248 84 212
    C 122 176 168 150 218 130
    C 268 110 318 100 358 96
    C 398 92 432 98 450 122
    C 465 142 458 170 438 186
    L 460 174
    L 372 220
    L 398 212
    L 280 354
    L 318 276
    L 236 292
    L 312 192
    L 268 200
    C 238 162 198 148 165 155
    C 132 162 104 188 88 216
    C 68 250 64 292 72 328
    C 78 358 90 392 106 420
    Z

    M 268 200
    L 310 190
    L 232 294
    L 318 278
    L 278 356
    L 398 214
    L 372 222
    L 458 178
    L 438 186
    C 412 196 378 196 355 202
    C 330 196 295 195 268 200
    Z
  "/>

  <!-- Galho esquerdo -->
  <path d="M 116 295 L 62 248" stroke="black" stroke-width="16" stroke-linecap="round"/>
  <path d="M 94 268 L 60 255" stroke="black" stroke-width="11" stroke-linecap="round"/>

  <!-- Linha de circuito 1 (topo) -->
  <path d="M 432 150 C 455 128 472 108 492 88" stroke="black" stroke-width="18" stroke-linecap="round"/>
  <circle cx="492" cy="88" r="26" stroke="black" stroke-width="18"/>

  <!-- Linha de circuito 2 -->
  <path d="M 448 168 C 475 155 500 146 528 142" stroke="black" stroke-width="16" stroke-linecap="round"/>
  <circle cx="528" cy="142" r="24" stroke="black" stroke-width="16"/>

  <!-- Linha de circuito 3 -->
  <path d="M 438 192 C 466 185 494 180 520 178" stroke="black" stroke-width="15" stroke-linecap="round"/>
  <circle cx="520" cy="178" r="22" stroke="black" stroke-width="15"/>

  <!-- Linha de circuito 4 (baixo) -->
  <path d="M 418 220 C 448 222 478 228 500 242" stroke="black" stroke-width="14" stroke-linecap="round"/>
  <circle cx="500" cy="244" r="20" stroke="black" stroke-width="14"/>
</svg>
